<svg width="68" height="68" viewBox="0 0 68 68" fill="none" xmlns="http://www.w3.org/2000/svg">
<path d="M22.686 17.0295C21.1239 15.4674 18.5912 15.4674 17.0291 17.0295C15.467 18.5916 15.467 21.1242 17.0291 22.6863L45.3134 50.9706C46.8755 52.5327 49.4081 52.5327 50.9702 50.9706C52.5323 49.4085 52.5323 46.8759 50.9702 45.3138L22.686 17.0295Z" fill="#414042"/>
<path d="M50.9705 22.6863C52.5326 21.1242 52.5326 18.5916 50.9705 17.0295C49.4084 15.4674 46.8758 15.4674 45.3137 17.0295L17.0294 45.3137C15.4673 46.8758 15.4673 49.4085 17.0294 50.9706C18.5915 52.5327 21.1241 52.5327 22.6862 50.9706L50.9705 22.6863Z" fill="#414042"/>
</svg>
