<svg width="97" height="30" viewBox="0 0 97 30" fill="none" xmlns="http://www.w3.org/2000/svg">
<path d="M12.5827 10.0177C12.5602 11.962 14.2293 13.0098 15.9901 13.0098C16.7689 13.0252 17.5359 12.8187 18.2016 12.4143C20.1636 11.1878 20.3037 9.01331 19.251 7.19131C17.429 3.92716 13.1509 3.54248 9.81753 3.54248C5.92566 3.54248 2.17383 4.94439 1.08739 8.83947C0.421042 11.3278 1.22742 14.1332 4.17288 16.0631C6.74814 17.6726 9.58898 18.7397 12.33 20.0741C12.3638 20.0885 12.4008 20.1079 12.4346 20.1256C12.6171 20.1994 12.7936 20.2871 12.9626 20.3879C16.143 22.284 16.3941 28.0348 11.0311 27.9189C5.79529 27.8063 7.46438 23.0163 7.98909 21.7077C8.07077 21.4591 8.08739 21.1937 8.03738 20.9368C7.51589 19.081 5.98522 18.236 4.42557 18.236C4.02153 18.2406 3.61989 18.299 3.2313 18.4098C-0.0650386 19.3932 -0.729778 23.4959 1.19845 25.8797C3.40674 28.5821 7.19398 29.7023 10.8058 29.7023C14.0667 29.7023 17.1522 28.7929 18.7682 27.3186C22.5522 23.8806 22.3784 17.9833 16.8013 15.2567C13.7207 13.7486 11.5043 12.7201 8.55887 11.1331C8.54318 11.1257 8.52811 11.1171 8.5138 11.1073C8.22219 10.973 7.94224 10.8148 7.67684 10.6341L7.6366 10.6068C7.60248 10.5877 7.57015 10.5656 7.54003 10.5408C6.95728 10.152 6.47248 9.63364 6.12364 9.02618C6.08662 8.96502 6.05604 8.90708 6.02546 8.84591C5.91006 8.62488 5.823 8.39019 5.76632 8.14737C5.75344 8.08943 5.74057 8.03309 5.73252 7.97837C5.50879 6.58934 6.5051 5.29205 9.45699 5.06028C14.5399 4.65629 13.0495 8.76222 12.6761 9.6539C12.6761 9.6539 12.6326 9.7891 12.6213 9.83578C12.6101 9.88246 12.5827 10.0177 12.5827 10.0177Z" fill="#312A33"/>
<path d="M40.2232 15.5691V28.9653H36.8898C34.7862 28.9653 34.3323 28.2636 34.3323 26.4045V17.3316C34.3323 17.1416 34.3323 16.9646 34.3323 16.7908C34.292 14.3974 33.5018 13.6731 31.8713 13.863C29.8465 14.1012 29.5358 15.4903 29.4924 15.9731V28.9605H26.1944C24.1246 28.9605 23.6337 28.2587 23.6337 26.3997V1.54199H27.07C28.9629 1.54199 29.3846 2.06992 29.4843 3.26098V13.5701C31.2371 11.8173 33.5871 10.8709 35.6537 10.8709C38.1533 10.8709 40.2232 12.3098 40.2232 15.5691Z" fill="#312A33"/>
<path d="M50.6033 10.9834C46.1481 10.9834 42.0454 14.1397 42.0454 20.4797C42.0454 26.8631 46.2898 29.6685 50.4955 29.6685C53.8626 29.6685 57.2298 27.8803 58.35 24.6902L57.9332 24.3426C56.2834 25.6028 54.6352 26.2016 53.1609 26.2016C50.4247 26.2016 48.2679 24.0786 47.9106 20.2302L58.7235 20.2205L58.7347 19.9147C58.7347 19.8455 58.7347 19.6524 58.7347 19.6073V19.5977C58.7347 13.9546 55.8601 11.0124 50.6033 10.9834ZM48.2711 14.8463C48.2711 14.8463 48.7379 12.1954 50.9043 12.2936C52.5235 12.3676 53.0997 15.1296 53.0997 15.1296C53.3539 16.2972 53.4567 17.4927 53.4055 18.6867H47.8317C47.8165 17.3932 47.9641 16.1029 48.2711 14.8463Z" fill="#312A33"/>
<path d="M61.1923 1.64795H64.6286C66.5231 1.64795 66.9786 2.17427 67.0429 3.36694V29.0697H63.753C61.6832 29.0697 61.1923 28.3679 61.1923 26.5105V1.64795Z" fill="#312A33"/>
<path d="M95.9793 2.10366C94.8221 0.735556 92.5413 0 90.1576 0C88.3678 0 86.5088 0.384679 85.0071 1.26188C83.7774 0.421699 81.9908 0 80.1318 0C76.0629 0 71.5417 2.14068 71.5047 7.11899V11.2587H67.7866V12.556H71.5014C71.4676 18.1154 71.4676 25.2376 71.4676 28.9733H74.9732C76.9385 28.9733 77.3875 28.2716 77.3875 26.3787V12.556H81.524C81.524 18.1154 81.4902 25.2376 81.4902 28.9733H85.0312C86.9627 28.9733 87.4149 28.2716 87.4149 26.3787V12.556H91.7607V11.2587H87.4149V4.76906C87.4149 4.555 87.4149 4.35058 87.4359 4.15583C87.4359 4.08501 87.4455 4.01741 87.452 3.9482C87.4584 3.87899 87.4793 3.69389 87.4858 3.66331C87.4922 3.63273 87.5163 3.45568 87.5437 3.30116C87.5598 3.21907 87.6161 2.97925 87.6355 2.91326C88.1425 1.26187 89.5894 1.02688 90.4006 1.76244C90.9302 2.2453 90.6743 3.23195 90.4811 3.76471C90.3971 4.01928 90.3478 4.28403 90.3347 4.55178C90.4634 6.56531 92.0086 7.64531 93.5875 7.64531C94.9894 7.64531 96.393 6.76811 96.7776 4.94289C96.9949 3.99648 96.7149 2.94706 95.9793 2.10366ZM81.6029 4.86724L81.5627 11.2587H77.394V5.46438C77.392 5.13505 77.4173 4.80612 77.4696 4.48096C77.4696 4.42784 77.4857 4.37633 77.4938 4.32805C77.5163 4.19929 77.5436 4.07696 77.5758 3.96107C77.5819 3.9365 77.5894 3.91231 77.5984 3.88865C77.6495 3.71714 77.7175 3.55109 77.8012 3.39291C78.482 2.11654 79.9531 2.03285 80.8593 2.56882C81.7317 3.09675 81.6029 4.86724 81.6029 4.86724Z" fill="#312A33"/>
</svg>
